PathFileType  4	(X/Y/Z) /Users/kristensteudel/Documents/NMBL_Research/BertecForceProcessing/anc_files/
DataRate	CameraRate	NumFrames	NumMarkers	Units	OrigDataRate	OrigDataStartFrame	OrigNumFrames
  200.0		  200.0		   4		     46		 mm	  200.0	      1025	   1171
Frame#	Time	r_knee			r_shank_antsup			r_ankle			r_calc			r_5meta			r_toe			L_knee			L_shank_antsup			L_ankle			L_calc			L_5meta			L_toe			r_sh2			r_sh3			r_sh4			L_sh2			L_sh3			r_thigh1			r_thigh2			r_thigh3			r_thigh4			r_thigh5			L_thigh1			L_thigh2			L_thigh3			L_thigh4			r.ASIS			r.PSIS			L.ASIS			L.PSIS			C7			R_Shoulder			L_Shoulder			Sternum			R_humerus			R_elbow_med			R_elbow_lat			R_forearm			R_wrist_radius			R_wrist_ulna			L_humerus			L_elbow_med			L_elbow_lat			L_forearm			L_wrist_radius			L_wrist_ulna			
		X1	Y1	Z1	X2	Y2	Z2	X3	Y3	Z3	X4	Y4	Z4	X5	Y5	Z5	X6	Y6	Z6	X7	Y7	Z7	X8	Y8	Z8	X9	Y9	Z9	X10	Y10	Z10	X11	Y11	Z11	X12	Y12	Z12	X13	Y13	Z13	X14	Y14	Z14	X15	Y15	Z15	X16	Y16	Z16	X17	Y17	Z17	X18	Y18	Z18	X19	Y19	Z19	X20	Y20	Z20	X21	Y21	Z21	X22	Y22	Z22	X23	Y23	Z23	X24	Y24	Z24	X25	Y25	Z25	X26	Y26	Z26	X27	Y27	Z27	X28	Y28	Z28	X29	Y29	Z29	X30	Y30	Z30	X31	Y31	Z31	X32	Y32	Z32	X33	Y33	Z33	X34	Y34	Z34	X35	Y35	Z35	X36	Y36	Z36	X37	Y37	Z37	X38	Y38	Z38	X39	Y39	Z39	X40	Y40	Z40	X41	Y41	Z41	X42	Y42	Z42	X43	Y43	Z43	X44	Y44	Z44	X45	Y45	Z45	X46	Y46	Z46	

1025	5.12000	1146.750	718.759	-175.547	1177.427	603.185	-161.417	1117.709	265.842	-180.038	1041.544	231.780	-240.564	1233.910	187.374	-152.703	1275.866	216.567	-213.134	511.891	580.515	-418.197	405.652	509.263	-412.030	105.098	452.979	-357.942	93.538	521.447	-313.430	12.898	312.424	-337.795	35.143	290.044	-266.155	1167.096	483.858	-162.501	1104.682	607.054	-144.027	1086.170	492.981	-158.152	382.750	595.365	-429.776	270.882	557.796	-398.005	1030.954	916.542	-147.723	1121.720	849.959	-169.387	1124.188	794.407	-150.868	975.806	826.303	-109.108	1067.012	760.796	-146.603	724.708	704.665	-447.611	636.577	601.241	-414.450	633.653	777.299	-474.221	551.492	673.008	-429.267	896.991	1006.032	-167.561	690.862	1072.093	-237.363	877.024	994.776	-427.886	688.442	1085.774	-346.360	795.742	1544.724	-307.900	824.924	1534.275	-100.686	914.005	1520.422	-465.972	950.552	1445.331	-256.385	651.330	1434.770	-34.667	507.715	1448.616	-110.206	515.369	1468.684	-35.205	555.960	1298.462	-8.176	568.719	1178.659	-10.294	517.692	1180.021	4.213	920.304	1291.498	-575.221	808.350	1158.700	-573.684	860.614	1214.112	-641.318	979.409	1249.467	-531.071	1013.896	1306.255	-435.272	1048.758	1248.306	-456.149
1026	5.12500	1139.458	708.488	-174.981	1175.353	591.847	-160.717	1141.698	252.244	-183.927	1064.795	216.984	-242.377	1260.875	178.441	-160.393	1299.731	212.272	-220.310	516.877	578.126	-420.478	406.829	514.626	-413.121	104.051	476.632	-357.975	99.394	547.104	-314.991	-0.130	346.104	-332.480	21.781	322.896	-259.784	1173.909	472.090	-163.318	1103.118	590.112	-141.334	1092.615	475.316	-157.665	388.811	600.419	-432.692	275.202	569.833	-399.521	1030.028	911.158	-147.259	1118.523	841.734	-169.206	1119.381	786.176	-150.560	972.701	823.048	-107.388	1061.361	754.475	-144.255	728.983	704.482	-447.146	642.353	599.477	-416.363	637.118	775.628	-474.795	555.965	669.732	-431.993	894.499	1007.446	-166.843	689.873	1073.818	-237.365	876.437	997.843	-428.322	687.529	1087.758	-345.747	798.123	1548.049	-306.790	826.455	1534.754	-99.438	915.201	1521.632	-466.423	951.289	1446.819	-256.294	652.734	1431.444	-34.890	509.628	1443.807	-111.061	517.018	1463.657	-35.605	558.668	1293.201	-10.042	573.168	1173.945	-12.788	521.824	1174.532	1.100	917.380	1291.511	-574.140	801.140	1162.879	-572.746	855.547	1216.489	-639.668	978.030	1242.138	-531.120	1018.539	1295.217	-433.868	1048.686	1235.332	-456.762
1027	5.13000	1132.250	696.468	-173.167	1172.812	579.520	-159.527	1162.570	240.220	-187.509	1085.653	204.508	-244.831	1284.632	171.177	-167.488	1320.423	208.623	-227.566	522.306	576.557	-422.658	409.862	518.844	-414.338	105.974	500.218	-357.986	108.288	572.007	-316.592	-9.284	379.708	-327.550	12.624	356.588	-254.097	1179.636	460.252	-164.693	1101.414	572.371	-138.942	1098.445	457.472	-157.390	396.379	605.527	-435.051	281.260	581.575	-401.693	1029.239	904.558	-146.529	1114.479	831.635	-169.400	1113.930	776.269	-150.587	969.168	818.995	-105.637	1054.557	746.028	-143.103	733.650	704.664	-447.705	648.541	597.822	-417.965	639.937	773.952	-475.851	560.931	666.248	-434.554	892.093	1008.954	-166.259	689.011	1074.989	-237.333	876.015	1000.090	-428.591	687.032	1088.998	-344.655	800.765	1551.529	-305.889	828.133	1535.102	-98.322	915.922	1522.619	-467.270	951.875	1448.182	-256.370	654.508	1427.327	-35.056	511.558	1437.375	-111.792	518.782	1457.228	-35.269	562.227	1286.772	-11.365	578.487	1167.944	-15.221	527.034	1167.894	-1.659	913.619	1291.413	-573.075	793.996	1166.842	-570.965	849.691	1218.811	-637.465	976.047	1234.176	-530.767	1022.211	1282.349	-432.785	1047.883	1221.114	-458.200
1028	5.13500	1124.944	683.570	-171.579	1170.513	566.890	-158.067	1179.989	230.592	-191.094	1103.310	193.456	-247.724	1304.728	165.387	-173.995	1338.167	205.840	-233.507	528.272	575.632	-424.489	414.037	522.616	-415.018	110.446	523.546	-357.991	119.341	596.035	-318.238	-14.430	413.991	-323.856	5.973	390.967	-250.965	1184.378	448.534	-166.522	1100.269	554.900	-136.540	1103.498	440.967	-156.983	405.362	609.948	-437.676	288.897	593.111	-404.720	1028.309	896.550	-145.502	1110.661	819.579	-169.833	1107.749	764.679	-151.041	964.873	813.791	-104.420	1047.346	737.508	-142.155	738.119	704.842	-449.109	654.801	596.699	-418.672	643.675	772.406	-477.013	565.727	662.944	-437.191	889.822	1010.130	-165.720	688.019	1075.781	-237.551	876.234	1002.207	-428.428	686.437	1089.888	-343.900	803.379	1554.843	-304.837	829.724	1535.173	-97.474	917.080	1523.418	-467.383	952.411	1449.352	-256.661	656.850	1422.521	-34.716	513.364	1429.365	-112.356	520.798	1449.379	-34.719	566.491	1279.442	-12.697	584.822	1161.274	-17.504	533.343	1160.202	-4.296	909.562	1291.308	-572.478	786.270	1170.762	-568.859	843.306	1221.001	-635.091	973.439	1225.479	-530.829	1024.731	1267.781	-432.252	1045.893	1205.860	-460.479
